<svg width="16.000000" height="16.000000" viewBox="0 0 16 16" fill="none" xmlns="http://www.w3.org/2000/svg" xmlns:xlink="http://www.w3.org/1999/xlink">
	<desc>
			Created with Pixso.
	</desc>
	<defs/>
	<rect id="Add User" width="16.000000" height="16.000000" fill="#FFFFFF" fill-opacity="0"/>
	<path id="Stroke 1" d="M1.83 12.07C1.83 13.62 4 14.03 6.58 14.03C9.14 14.03 11.33 13.64 11.33 12.09C11.33 10.53 9.16 10.13 6.58 10.13C4.02 10.13 1.83 10.52 1.83 12.07Z" stroke="#FFFFFF" stroke-opacity="1.000000" stroke-width="1.000000" stroke-linejoin="round"/>
	<path id="Stroke 3" d="M9.62 4.87C9.62 3.19 8.26 1.83 6.58 1.83C4.9 1.83 3.54 3.19 3.54 4.87C3.53 6.55 4.88 7.91 6.56 7.92L6.58 7.92C8.26 7.92 9.62 6.56 9.62 4.87Z" stroke="#FFFFFF" stroke-opacity="1.000000" stroke-width="1.000000" stroke-linejoin="round"/>
	<path id="Stroke 5" d="M12.8 5.77L12.8 8.45" stroke="#FFFFFF" stroke-opacity="1.000000" stroke-width="1.000000" stroke-linejoin="round" stroke-linecap="round"/>
	<path id="Stroke 7" d="M11.43 7.11L14.16 7.11" stroke="#FFFFFF" stroke-opacity="1.000000" stroke-width="1.000000" stroke-linejoin="round" stroke-linecap="round"/>
</svg>
