<svg width="18.000000" height="18.000000" viewBox="0 0 18 18" fill="none" xmlns="http://www.w3.org/2000/svg" xmlns:xlink="http://www.w3.org/1999/xlink">
	<desc>
			Created with Pixso.
	</desc>
	<defs/>
	<rect id="Add User" width="18.000000" height="18.000000" fill="#FFFFFF" fill-opacity="0"/>
	<path id="Stroke 1" d="M2.06 13.58C2.06 15.33 4.5 15.78 7.4 15.78C10.29 15.78 12.75 15.34 12.75 13.6C12.75 11.85 10.3 11.4 7.4 11.4C4.52 11.4 2.06 11.84 2.06 13.58Z" stroke="#0066FF" stroke-opacity="1.000000" stroke-width="1.200000" stroke-linejoin="round"/>
	<path id="Stroke 3" d="M10.83 5.48C10.83 3.59 9.29 2.06 7.4 2.06C5.51 2.06 3.98 3.59 3.98 5.48C3.97 7.37 5.49 8.9 7.38 8.91L7.4 8.91C9.29 8.91 10.83 7.38 10.83 5.48Z" stroke="#0066FF" stroke-opacity="1.000000" stroke-width="1.200000" stroke-linejoin="round"/>
	<path id="Stroke 5" d="M14.4 6.5L14.4 9.5" stroke="#0066FF" stroke-opacity="1.000000" stroke-width="1.200000" stroke-linejoin="round" stroke-linecap="round"/>
	<path id="Stroke 7" d="M12.86 8L15.93 8" stroke="#0066FF" stroke-opacity="1.000000" stroke-width="1.200000" stroke-linejoin="round" stroke-linecap="round"/>
</svg>
