<svg width="16.000000" height="16.000000" viewBox="0 0 16 16" fill="none" xmlns="http://www.w3.org/2000/svg" xmlns:xlink="http://www.w3.org/1999/xlink">
	<desc>
			Created with Pixso.
	</desc>
	<defs/>
	<path id="Vector" d="M2.84 10.65C2.84 11.87 2.84 11.87 3.98 12.64L7.14 14.46C7.61 14.74 8.38 14.74 8.86 14.46L12.01 12.64C13.16 11.87 13.16 11.87 13.16 10.65L13.16 7.34C13.16 6.13 13.16 6.13 12.01 5.35L8.86 3.54C8.38 3.26 7.61 3.26 7.14 3.54L3.98 5.35C2.84 6.13 2.84 6.13 2.84 7.34L2.84 10.65Z" stroke="#464646" stroke-opacity="1.000000" stroke-width="1.000000" stroke-linejoin="round"/>
	<path id="Vector" d="M11.66 5.08L11.66 3.33C11.66 2 11 1.33 9.66 1.33L6.33 1.33C5 1.33 4.33 2 4.33 3.33L4.33 5.04" stroke="#464646" stroke-opacity="1.000000" stroke-width="1.000000" stroke-linejoin="round" stroke-linecap="round"/>
	<path id="Vector" d="M8.79 7.91C8.85 8.01 8.99 8.1 9.09 8.13L9.77 8.3C10.19 8.41 10.3 8.77 10.03 9.1L9.58 9.64C9.52 9.73 9.46 9.88 9.47 9.99L9.51 10.69C9.53 11.12 9.23 11.34 8.83 11.18L8.17 10.92C8.08 10.88 7.91 10.88 7.81 10.92L7.15 11.18C6.76 11.34 6.45 11.11 6.47 10.69L6.52 9.99C6.52 9.88 6.47 9.72 6.4 9.64L5.96 9.1C5.68 8.77 5.79 8.41 6.21 8.3L6.9 8.13C7 8.1 7.14 8 7.19 7.91L7.57 7.32C7.81 6.96 8.18 6.96 8.41 7.32L8.79 7.91Z" stroke="#464646" stroke-opacity="1.000000" stroke-width="1.000000" stroke-linejoin="round"/>
	<g opacity="0.000000"/>
</svg>
