<svg width="16.000000" height="16.000000" viewBox="0 0 16 16" fill="none" xmlns="http://www.w3.org/2000/svg" xmlns:xlink="http://www.w3.org/1999/xlink">
	<desc>
			Created with Pixso.
	</desc>
	<defs/>
	<path id="Vector" d="M14.48 12.94C14.36 13.18 14.22 13.41 14.02 13.62C13.7 13.98 13.34 14.24 12.93 14.41C12.53 14.58 12.1 14.66 11.63 14.66C10.95 14.66 10.22 14.5 9.45 14.18C8.69 13.85 7.92 13.41 7.16 12.86C6.4 12.3 5.67 11.68 4.97 10.99C4.29 10.3 3.67 9.57 3.12 8.81C2.57 8.05 2.13 7.29 1.81 6.54C1.49 5.78 1.33 5.05 1.33 4.35C1.33 3.9 1.41 3.47 1.57 3.07C1.73 2.66 1.98 2.29 2.34 1.96C2.76 1.54 3.23 1.33 3.72 1.33C3.91 1.33 4.1 1.37 4.26 1.45C4.43 1.53 4.59 1.65 4.71 1.82L6.26 4C6.38 4.17 6.46 4.32 6.52 4.47C6.58 4.61 6.62 4.75 6.62 4.88C6.62 5.04 6.57 5.2 6.47 5.35C6.39 5.5 6.26 5.66 6.1 5.82L5.6 6.35C5.52 6.42 5.49 6.51 5.49 6.62C5.49 6.67 5.5 6.72 5.51 6.77C5.53 6.82 5.55 6.86 5.56 6.9C5.68 7.12 5.89 7.41 6.18 7.76C6.48 8.1 6.8 8.46 7.15 8.81C7.51 9.16 7.86 9.49 8.21 9.79C8.56 10.08 8.84 10.28 9.07 10.4C9.1 10.42 9.14 10.44 9.19 10.46C9.24 10.48 9.3 10.48 9.36 10.48C9.47 10.48 9.56 10.44 9.63 10.37L10.14 9.87C10.3 9.7 10.46 9.58 10.62 9.5C10.77 9.4 10.92 9.35 11.09 9.35C11.22 9.35 11.35 9.38 11.5 9.44C11.64 9.5 11.8 9.59 11.96 9.7L14.17 11.27C14.34 11.39 14.46 11.53 14.54 11.7C14.6 11.86 14.64 12.03 14.64 12.22C14.64 12.46 14.59 12.7 14.48 12.94Z" stroke="#FFFFFF" stroke-opacity="1.000000" stroke-width="1.000000"/>
	<path id="Vector" d="M12.33 6C12.33 5.59 12.02 4.98 11.55 4.48C11.12 4.02 10.56 3.66 10 3.66" stroke="#FFFFFF" stroke-opacity="1.000000" stroke-width="1.000000" stroke-linejoin="round" stroke-linecap="round"/>
	<path id="Vector" d="M14.66 6C14.66 3.42 12.58 1.33 10 1.33" stroke="#FFFFFF" stroke-opacity="1.000000" stroke-width="1.000000" stroke-linejoin="round" stroke-linecap="round"/>
	<g opacity="0.000000"/>
</svg>
