<svg width="12.000000" height="12.000000" viewBox="0 0 12 12" fill="none" xmlns="http://www.w3.org/2000/svg" xmlns:xlink="http://www.w3.org/1999/xlink">
	<desc>
			Created with Pixso.
	</desc>
	<defs/>
	<path id="Vector" d="M7.5 11C10 11 11 10 11 7.5L11 4.5C11 2 10 1 7.5 1L4.5 1C2 1 1 2 1 4.5L1 7.5C1 10 2 11 4.5 11L7.5 11Z" stroke="#181818" stroke-opacity="1.000000" stroke-width="0.800000" stroke-linejoin="round"/>
	<path id="Vector" d="M8.75 8.25L8.75 3.75C8.75 3.2 8.29 2.75 7.75 2.75C7.2 2.75 6.75 3.2 6.75 3.75L6.75 8.25C6.75 8.79 7.19 9.25 7.75 9.25C8.29 9.25 8.75 8.79 8.75 8.25Z" stroke="#181818" stroke-opacity="1.000000" stroke-width="0.800000" stroke-linejoin="round"/>
	<path id="Vector" d="M5.25 8.25L5.25 6.5C5.25 5.95 4.79 5.5 4.25 5.5C3.7 5.5 3.25 5.95 3.25 6.5L3.25 8.25C3.25 8.79 3.69 9.25 4.25 9.25C4.79 9.25 5.25 8.79 5.25 8.25Z" stroke="#181818" stroke-opacity="1.000000" stroke-width="0.800000" stroke-linejoin="round"/>
	<g opacity="0.000000"/>
</svg>
