<svg width="12.000000" height="12.000000" viewBox="0 0 12 12" fill="none" xmlns="http://www.w3.org/2000/svg" xmlns:xlink="http://www.w3.org/1999/xlink">
	<desc>
			Created with Pixso.
	</desc>
	<defs/>
	<path id="Vector" d="M6 11C3.23 11 1 8.76 1 6C1 3.23 3.23 1 6 1C8.76 1 11 3.23 11 6C11 8.76 8.76 11 6 11Z" stroke="#464646" stroke-opacity="1.000000" stroke-width="0.800000" stroke-linejoin="round"/>
	<path id="Vector" d="M7.85 7.58L6.3 6.66C6.03 6.5 5.81 6.11 5.81 5.8L5.81 3.75" stroke="#464646" stroke-opacity="1.000000" stroke-width="0.800000" stroke-linejoin="round" stroke-linecap="round"/>
	<g opacity="0.000000">
		<path id="Vector" d="M12 0L0 0L0 12L12 12L12 0ZM0.8 11.2L0.8 0.8L11.2 0.8L11.2 11.2L0.8 11.2Z" fill="#464646" fill-opacity="1.000000" fill-rule="evenodd"/>
	</g>
</svg>
