<svg width="12.000000" height="12.000000" viewBox="0 0 12 12" fill="none" xmlns="http://www.w3.org/2000/svg" xmlns:xlink="http://www.w3.org/1999/xlink">
	<desc>
			Created with Pixso.
	</desc>
	<defs/>
	<path id="Vector" d="M8 8.55C8 10.3 7.3 11 5.55 11L3.44 11C1.69 11 1 10.3 1 8.55L1 6.44C1 4.69 1.69 4 3.44 4L5.55 4C7.3 4 8 4.69 8 6.44L8 8.55Z" stroke="#181818" stroke-opacity="1.000000" stroke-width="0.800000" stroke-linejoin="round"/>
	<path id="Vector" d="M11 5.55C11 7.3 10.3 8 8.55 8L8 8L8 6.44C8 4.69 7.3 4 5.55 4L4 4L4 3.44C4 1.69 4.69 1 6.44 1L8.55 1C10.3 1 11 1.69 11 3.44L11 5.55Z" stroke="#181818" stroke-opacity="1.000000" stroke-width="0.800000" stroke-linejoin="round"/>
	<g opacity="0.000000">
		<path id="Vector" d="M12 0L0 0L0 12L12 12L12 0ZM0.8 11.2L0.8 0.8L11.2 0.8L11.2 11.2L0.8 11.2Z" fill="#181818" fill-opacity="1.000000" fill-rule="evenodd"/>
	</g>
</svg>
