<svg width="18.000000" height="18.000000" viewBox="0 0 18 18" fill="none" xmlns="http://www.w3.org/2000/svg" xmlns:xlink="http://www.w3.org/1999/xlink">
	<desc>
			Created with Pixso.
	</desc>
	<defs/>
	<path id="Vector" d="M10.79 15C13.79 15 15 13.79 15 10.79L15 7.2C15 4.2 13.79 3 10.79 3L7.2 3C4.2 3 3 4.2 3 7.2L3 10.79C3 13.79 4.2 15 7.2 15L10.79 15Z" stroke="#B9B9B9" stroke-opacity="1.000000" stroke-width="1.200000" stroke-linejoin="round"/>
	<path id="Vector" d="M10.12 12.75C12 12.75 12.75 12 12.75 10.12L12.75 7.87C12.75 6 12 5.25 10.12 5.25L7.87 5.25C6 5.25 5.25 6 5.25 7.87L5.25 10.12C5.25 12 6 12.75 7.87 12.75L10.12 12.75Z" stroke="#B9B9B9" stroke-opacity="1.000000" stroke-width="1.200000" stroke-linejoin="round"/>
	<path id="Vector" d="M6 1.5L6 3" stroke="#B9B9B9" stroke-opacity="1.000000" stroke-width="1.200000" stroke-linejoin="round" stroke-linecap="round"/>
	<path id="Vector" d="M9 1.5L9 3" stroke="#B9B9B9" stroke-opacity="1.000000" stroke-width="1.200000" stroke-linejoin="round" stroke-linecap="round"/>
	<path id="Vector" d="M12 1.5L12 3" stroke="#B9B9B9" stroke-opacity="1.000000" stroke-width="1.200000" stroke-linejoin="round" stroke-linecap="round"/>
	<path id="Vector" d="M15 6L16.5 6" stroke="#B9B9B9" stroke-opacity="1.000000" stroke-width="1.200000" stroke-linejoin="round" stroke-linecap="round"/>
	<path id="Vector" d="M15 9L16.5 9" stroke="#B9B9B9" stroke-opacity="1.000000" stroke-width="1.200000" stroke-linejoin="round" stroke-linecap="round"/>
	<path id="Vector" d="M15 12L16.5 12" stroke="#B9B9B9" stroke-opacity="1.000000" stroke-width="1.200000" stroke-linejoin="round" stroke-linecap="round"/>
	<path id="Vector" d="M12 15L12 16.5" stroke="#B9B9B9" stroke-opacity="1.000000" stroke-width="1.200000" stroke-linejoin="round" stroke-linecap="round"/>
	<path id="Vector" d="M9 15L9 16.5" stroke="#B9B9B9" stroke-opacity="1.000000" stroke-width="1.200000" stroke-linejoin="round" stroke-linecap="round"/>
	<path id="Vector" d="M6 15L6 16.5" stroke="#B9B9B9" stroke-opacity="1.000000" stroke-width="1.200000" stroke-linejoin="round" stroke-linecap="round"/>
	<path id="Vector" d="M1.5 6L3 6" stroke="#B9B9B9" stroke-opacity="1.000000" stroke-width="1.200000" stroke-linejoin="round" stroke-linecap="round"/>
	<path id="Vector" d="M1.5 9L3 9" stroke="#B9B9B9" stroke-opacity="1.000000" stroke-width="1.200000" stroke-linejoin="round" stroke-linecap="round"/>
	<path id="Vector" d="M1.5 12L3 12" stroke="#B9B9B9" stroke-opacity="1.000000" stroke-width="1.200000" stroke-linejoin="round" stroke-linecap="round"/>
	<g opacity="0.000000"/>
</svg>
