<svg width="16.000000" height="16.000000" viewBox="0 0 16 16" fill="none" xmlns="http://www.w3.org/2000/svg" xmlns:xlink="http://www.w3.org/1999/xlink">
	<desc>
			Created with Pixso.
	</desc>
	<defs/>
	<path id="Vector" d="M9.59 13.33C12.26 13.33 13.33 12.26 13.33 9.6L13.33 6.4C13.33 3.73 12.26 2.66 9.59 2.66L6.39 2.66C3.73 2.66 2.66 3.73 2.66 6.4L2.66 9.6C2.66 12.26 3.73 13.33 6.39 13.33L9.59 13.33Z" stroke="#3385FF" stroke-opacity="1.000000" stroke-width="0.800000" stroke-linejoin="round"/>
	<path id="Vector" d="M9 11.33C10.66 11.33 11.33 10.66 11.33 9L11.33 7C11.33 5.33 10.66 4.66 9 4.66L7 4.66C5.33 4.66 4.66 5.33 4.66 7L4.66 9C4.66 10.66 5.33 11.33 7 11.33L9 11.33Z" stroke="#3385FF" stroke-opacity="1.000000" stroke-width="0.800000" stroke-linejoin="round"/>
	<path id="Vector" d="M5.33 1.33L5.33 2.66" stroke="#3385FF" stroke-opacity="1.000000" stroke-width="0.800000" stroke-linejoin="round" stroke-linecap="round"/>
	<path id="Vector" d="M8 1.33L8 2.66" stroke="#3385FF" stroke-opacity="1.000000" stroke-width="0.800000" stroke-linejoin="round" stroke-linecap="round"/>
	<path id="Vector" d="M10.66 1.33L10.66 2.66" stroke="#3385FF" stroke-opacity="1.000000" stroke-width="0.800000" stroke-linejoin="round" stroke-linecap="round"/>
	<path id="Vector" d="M13.33 5.33L14.66 5.33" stroke="#3385FF" stroke-opacity="1.000000" stroke-width="0.800000" stroke-linejoin="round" stroke-linecap="round"/>
	<path id="Vector" d="M13.33 8L14.66 8" stroke="#3385FF" stroke-opacity="1.000000" stroke-width="0.800000" stroke-linejoin="round" stroke-linecap="round"/>
	<path id="Vector" d="M13.33 10.66L14.66 10.66" stroke="#3385FF" stroke-opacity="1.000000" stroke-width="0.800000" stroke-linejoin="round" stroke-linecap="round"/>
	<path id="Vector" d="M10.66 13.33L10.66 14.66" stroke="#3385FF" stroke-opacity="1.000000" stroke-width="0.800000" stroke-linejoin="round" stroke-linecap="round"/>
	<path id="Vector" d="M8 13.33L8 14.66" stroke="#3385FF" stroke-opacity="1.000000" stroke-width="0.800000" stroke-linejoin="round" stroke-linecap="round"/>
	<path id="Vector" d="M5.33 13.33L5.33 14.66" stroke="#3385FF" stroke-opacity="1.000000" stroke-width="0.800000" stroke-linejoin="round" stroke-linecap="round"/>
	<path id="Vector" d="M1.33 5.33L2.66 5.33" stroke="#3385FF" stroke-opacity="1.000000" stroke-width="0.800000" stroke-linejoin="round" stroke-linecap="round"/>
	<path id="Vector" d="M1.33 8L2.66 8" stroke="#3385FF" stroke-opacity="1.000000" stroke-width="0.800000" stroke-linejoin="round" stroke-linecap="round"/>
	<path id="Vector" d="M1.33 10.66L2.66 10.66" stroke="#3385FF" stroke-opacity="1.000000" stroke-width="0.800000" stroke-linejoin="round" stroke-linecap="round"/>
	<g opacity="0.000000"/>
</svg>
