<svg width="12.000000" height="12.000000" viewBox="0 0 12 12" fill="none" xmlns="http://www.w3.org/2000/svg" xmlns:xlink="http://www.w3.org/1999/xlink">
	<desc>
			Created with Pixso.
	</desc>
	<defs/>
	<path id="Vector" d="M7.2 10C9.2 10 10 9.2 10 7.2L10 4.79C10 2.79 9.2 2 7.2 2L4.79 2C2.79 2 2 2.79 2 4.79L2 7.2C2 9.2 2.79 10 4.79 10L7.2 10Z" stroke="#181818" stroke-opacity="1.000000" stroke-width="0.800000" stroke-linejoin="round"/>
	<path id="Vector" d="M6.75 8.5C8 8.5 8.5 8 8.5 6.75L8.5 5.25C8.5 4 8 3.5 6.75 3.5L5.25 3.5C4 3.5 3.5 4 3.5 5.25L3.5 6.75C3.5 8 4 8.5 5.25 8.5L6.75 8.5Z" stroke="#181818" stroke-opacity="1.000000" stroke-width="0.800000" stroke-linejoin="round"/>
	<path id="Vector" d="M4 1L4 2" stroke="#181818" stroke-opacity="1.000000" stroke-width="0.800000" stroke-linejoin="round" stroke-linecap="round"/>
	<path id="Vector" d="M6 1L6 2" stroke="#181818" stroke-opacity="1.000000" stroke-width="0.800000" stroke-linejoin="round" stroke-linecap="round"/>
	<path id="Vector" d="M8 1L8 2" stroke="#181818" stroke-opacity="1.000000" stroke-width="0.800000" stroke-linejoin="round" stroke-linecap="round"/>
	<path id="Vector" d="M10 4L11 4" stroke="#181818" stroke-opacity="1.000000" stroke-width="0.800000" stroke-linejoin="round" stroke-linecap="round"/>
	<path id="Vector" d="M10 6L11 6" stroke="#181818" stroke-opacity="1.000000" stroke-width="0.800000" stroke-linejoin="round" stroke-linecap="round"/>
	<path id="Vector" d="M10 8L11 8" stroke="#181818" stroke-opacity="1.000000" stroke-width="0.800000" stroke-linejoin="round" stroke-linecap="round"/>
	<path id="Vector" d="M8 10L8 11" stroke="#181818" stroke-opacity="1.000000" stroke-width="0.800000" stroke-linejoin="round" stroke-linecap="round"/>
	<path id="Vector" d="M6 10L6 11" stroke="#181818" stroke-opacity="1.000000" stroke-width="0.800000" stroke-linejoin="round" stroke-linecap="round"/>
	<path id="Vector" d="M4 10L4 11" stroke="#181818" stroke-opacity="1.000000" stroke-width="0.800000" stroke-linejoin="round" stroke-linecap="round"/>
	<path id="Vector" d="M1 4L2 4" stroke="#181818" stroke-opacity="1.000000" stroke-width="0.800000" stroke-linejoin="round" stroke-linecap="round"/>
	<path id="Vector" d="M1 6L2 6" stroke="#181818" stroke-opacity="1.000000" stroke-width="0.800000" stroke-linejoin="round" stroke-linecap="round"/>
	<path id="Vector" d="M1 8L2 8" stroke="#181818" stroke-opacity="1.000000" stroke-width="0.800000" stroke-linejoin="round" stroke-linecap="round"/>
	<g opacity="0.000000"/>
</svg>
