<svg width="16.000000" height="16.000000" viewBox="0 0 16 16" fill="none" xmlns="http://www.w3.org/2000/svg" xmlns:xlink="http://www.w3.org/1999/xlink">
	<desc>
			Created with Pixso.
	</desc>
	<defs/>
	<path id="Vector" d="M13.33 9.26C13.33 11.36 12.13 12.26 10.33 12.26L4.33 12.26C2.53 12.26 1.33 11.36 1.33 9.26L1.33 5.66C1.33 3.56 2.53 2.66 4.33 2.66L6.13 2.66C6.04 2.91 6 3.19 6 3.5L6 6.09C6 6.74 6.21 7.29 6.59 7.67C6.97 8.05 7.51 8.26 8.16 8.26L8.16 9.19C8.16 9.53 8.55 9.73 8.83 9.55L10.76 8.26L12.5 8.26C12.79 8.26 13.08 8.21 13.33 8.13L13.33 9.26Z" stroke="#464646" stroke-opacity="1.000000" stroke-width="1.000000" stroke-linejoin="round"/>
	<path id="Vector" d="M14.66 6.1C14.66 7.09 14.16 7.83 13.33 8.13C13.08 8.21 12.79 8.26 12.5 8.26L10.76 8.26L8.83 9.55C8.55 9.73 8.16 9.53 8.16 9.19L8.16 8.26C7.51 8.26 6.97 8.05 6.59 7.67C6.21 7.29 6 6.74 6 6.1L6 3.5C6 3.2 6.04 2.92 6.13 2.66C6.42 1.84 7.17 1.33 8.16 1.33L12.5 1.33C13.79 1.33 14.66 2.2 14.66 3.5L14.66 6.1Z" stroke="#464646" stroke-opacity="1.000000" stroke-width="1.000000" stroke-linejoin="round"/>
	<path id="Vector" d="M4.93 14.66L9.73 14.66" stroke="#464646" stroke-opacity="1.000000" stroke-width="1.000000" stroke-linejoin="round" stroke-linecap="round"/>
	<path id="Vector" d="M7.33 12.26L7.33 14.66" stroke="#464646" stroke-opacity="1.000000" stroke-width="1.000000" stroke-linejoin="round" stroke-linecap="round"/>
	<g opacity="0.000000"/>
</svg>
