<svg width="12.000000" height="12.000000" viewBox="0 0 12 12" fill="none" xmlns="http://www.w3.org/2000/svg" xmlns:xlink="http://www.w3.org/1999/xlink">
	<desc>
			Created with Pixso.
	</desc>
	<defs/>
	<path id="Vector" d="M2.52 6.14C2.36 6.3 2.21 6.63 2.19 6.85L2 8.47C1.94 9.06 2.35 9.46 2.94 9.36L4.54 9.08C4.77 9.04 5.08 8.88 5.24 8.71L9.34 4.37C10.06 3.62 10.38 2.76 9.27 1.71C8.17 0.68 7.33 1.04 6.63 1.79L2.52 6.14Z" stroke="#181818" stroke-opacity="1.000000" stroke-width="0.800000" stroke-linejoin="round"/>
	<path id="Vector" d="M5.94 2.52C6.16 3.9 7.28 4.96 8.66 5.09" stroke="#181818" stroke-opacity="1.000000" stroke-width="0.800000" stroke-linejoin="round" stroke-linecap="round"/>
	<path id="Vector" d="M1.5 11L10.5 11" stroke="#181818" stroke-opacity="1.000000" stroke-width="0.800000" stroke-linejoin="round" stroke-linecap="round"/>
	<g opacity="0.000000">
		<path id="Vector" d="M12 0L0 0L0 12L12 12L12 0ZM0.79 11.2L0.79 0.8L11.2 0.8L11.2 11.2L0.79 11.2Z" fill="#181818" fill-opacity="1.000000" fill-rule="evenodd"/>
	</g>
</svg>
