<svg width="18.000000" height="18.000000" viewBox="0 0 18 18" fill="none" xmlns="http://www.w3.org/2000/svg" xmlns:xlink="http://www.w3.org/1999/xlink">
	<desc>
			Created with Pixso.
	</desc>
	<defs/>
	<path id="Vector" d="M6.75 7.5C5.92 7.5 5.25 6.82 5.25 6C5.25 5.17 5.92 4.5 6.75 4.5C7.57 4.5 8.25 5.17 8.25 6C8.25 6.82 7.57 7.5 6.75 7.5Z" stroke="#FFFFFF" stroke-opacity="1.000000" stroke-width="1.200000" stroke-linejoin="round"/>
	<path id="Vector" d="M9.75 1.5L6.75 1.5C3 1.5 1.5 3 1.5 6.75L1.5 11.25C1.5 15 3 16.5 6.75 16.5L11.25 16.5C15 16.5 16.5 15 16.5 11.25L16.5 7.5" stroke="#FFFFFF" stroke-opacity="1.000000" stroke-width="1.200000" stroke-linejoin="round" stroke-linecap="round"/>
	<path id="Vector" d="M2 14.21L5.69 11.73C6.29 11.33 7.14 11.37 7.67 11.83L7.92 12.05C8.51 12.55 9.45 12.55 10.04 12.05L13.16 9.37C13.74 8.87 14.69 8.87 15.27 9.37L16.5 10.42" stroke="#FFFFFF" stroke-opacity="1.000000" stroke-width="1.200000" stroke-linejoin="round" stroke-linecap="round"/>
	<g opacity="0.000000"/>
</svg>
