<svg width="12.000000" height="12.000000" viewBox="0 0 12 12" fill="none" xmlns="http://www.w3.org/2000/svg" xmlns:xlink="http://www.w3.org/1999/xlink">
	<desc>
			Created with Pixso.
	</desc>
	<defs/>
	<rect width="12.000000" height="12.000000" fill="#FFFFFF" fill-opacity="0"/>
	<path d="M8.21 8.99C8.21 10.11 6.65 10.4 4.79 10.4C2.95 10.4 1.37 10.12 1.37 9C1.37 7.89 2.94 7.6 4.79 7.6C6.64 7.6 8.21 7.88 8.21 8.99Z" stroke="#A3A3A3" stroke-opacity="1.000000" stroke-width="0.800000" stroke-linejoin="round"/>
	<path d="M2.6 3.81C2.6 2.6 3.58 1.62 4.79 1.62C6 1.62 6.98 2.6 6.98 3.81C6.99 5.02 6.01 6 4.81 6L4.79 6C3.58 6 2.6 5.02 2.6 3.81Z" stroke="#A3A3A3" stroke-opacity="1.000000" stroke-width="0.800000" stroke-linejoin="round"/>
	<path d="M8.24 5.44C9.04 5.32 9.65 4.64 9.66 3.8C9.66 2.99 9.06 2.31 8.27 2.18" stroke="#A3A3A3" stroke-opacity="1.000000" stroke-width="0.800000" stroke-linejoin="round" stroke-linecap="round"/>
	<path d="M9.29 7.36C10.07 7.48 10.61 7.75 10.61 8.31C10.61 8.69 10.35 8.94 9.94 9.1" stroke="#A3A3A3" stroke-opacity="1.000000" stroke-width="0.800000" stroke-linejoin="round" stroke-linecap="round"/>
</svg>
