<svg width="16.000000" height="16.000000" viewBox="0 0 16 16" fill="none" xmlns="http://www.w3.org/2000/svg" xmlns:xlink="http://www.w3.org/1999/xlink">
	<desc>
			Created with Pixso.
	</desc>
	<defs/>
	<path id="Vector" d="M4.67 5.97L11.32 5.97" stroke="#464646" stroke-opacity="1.000000" stroke-width="1.000000" stroke-linejoin="round" stroke-linecap="round"/>
	<path id="Vector" d="M8 4.85L8 5.97" stroke="#464646" stroke-opacity="1.000000" stroke-width="1.000000" stroke-linejoin="round" stroke-linecap="round"/>
	<path id="Vector" d="M9.66 5.95C9.66 8.82 7.42 11.14 4.66 11.14" stroke="#464646" stroke-opacity="1.000000" stroke-width="1.000000" stroke-linejoin="round" stroke-linecap="round"/>
	<path id="Vector" d="M11.33 11.14C10.13 11.14 9.06 10.5 8.29 9.5" stroke="#464646" stroke-opacity="1.000000" stroke-width="1.000000" stroke-linejoin="round" stroke-linecap="round"/>
	<path id="Vector" d="M10 14.66C13.33 14.66 14.66 13.33 14.66 10L14.66 6C14.66 2.66 13.33 1.33 10 1.33L6 1.33C2.66 1.33 1.33 2.66 1.33 6L1.33 10C1.33 13.33 2.66 14.66 6 14.66L10 14.66Z" stroke="#464646" stroke-opacity="1.000000" stroke-width="1.000000" stroke-linejoin="round"/>
	<g opacity="0.000000"/>
</svg>
