<svg width="12.000000" height="12.000000" viewBox="0 0 12 12" fill="none" xmlns="http://www.w3.org/2000/svg" xmlns:xlink="http://www.w3.org/1999/xlink">
	<desc>
			Created with Pixso.
	</desc>
	<defs/>
	<path id="Vector" d="M6 6.71C5.13 6.71 4.44 6.01 4.44 5.15C4.44 4.29 5.13 3.59 6 3.59C6.86 3.59 7.56 4.29 7.56 5.15C7.56 6.01 6.86 6.71 6 6.71Z" stroke="#181818" stroke-opacity="1.000000" stroke-width="0.800000"/>
	<path id="Vector" d="M10.18 4.25C10.76 6.78 9.18 8.93 7.79 10.27C6.79 11.24 5.2 11.24 4.19 10.27C2.81 8.93 1.23 6.78 1.81 4.24C2.79 -0.09 9.2 -0.09 10.18 4.25Z" stroke="#181818" stroke-opacity="1.000000" stroke-width="0.800000"/>
	<g opacity="0.000000">
		<path id="Vector" d="M0 12L12 12L12 0L0 0L0 12ZM11.2 0.79L11.2 11.2L0.79 11.2L0.79 0.79L11.2 0.79Z" fill="#181818" fill-opacity="1.000000" fill-rule="evenodd"/>
	</g>
</svg>
