<svg width="18.000000" height="18.000000" viewBox="0 0 18 18" fill="none" xmlns="http://www.w3.org/2000/svg" xmlns:xlink="http://www.w3.org/1999/xlink">
	<desc>
			Created with Pixso.
	</desc>
	<defs/>
	<path id="Vector" d="M13.5 9.75L13.5 6C13.5 3.51 11.48 1.5 9 1.5C6.51 1.5 4.5 3.51 4.5 6L4.5 9.75C4.5 12.23 6.51 14.25 9 14.25C11.48 14.25 13.5 12.23 13.5 9.75Z" stroke="#2F2F2F" stroke-opacity="1.000000" stroke-width="1.000000" stroke-linejoin="round"/>
	<path id="Vector" d="M2.25 8.25L2.25 9.75C2.25 13.47 5.27 16.5 9 16.5C12.72 16.5 15.75 13.47 15.75 9.75L15.75 8.25" stroke="#2F2F2F" stroke-opacity="1.000000" stroke-width="1.000000" stroke-linejoin="round" stroke-linecap="round"/>
	<path id="Vector" d="M6.83 5.6C8.16 5.12 9.62 5.12 10.95 5.6" stroke="#2F2F2F" stroke-opacity="1.000000" stroke-width="1.000000" stroke-linejoin="round" stroke-linecap="round"/>
	<path id="Vector" d="M7.52 7.85C8.42 7.61 9.37 7.61 10.27 7.85" stroke="#2F2F2F" stroke-opacity="1.000000" stroke-width="1.000000" stroke-linejoin="round" stroke-linecap="round"/>
	<g opacity="0.000000"/>
</svg>
