<svg width="16.000000" height="16.000000" viewBox="0 0 16 16" fill="none" xmlns="http://www.w3.org/2000/svg" xmlns:xlink="http://www.w3.org/1999/xlink">
	<desc>
			Created with Pixso.
	</desc>
	<defs/>
	<rect id="Свойство 1=mobile" width="16.000000" height="16.000000" fill="#FFFFFF" fill-opacity="0"/>
	<g opacity="0.000000">
		<path id="Vector" d="M16 0L0 0L0 16L16 16L16 0ZM1 15L1 1L15 1L15 15L1 15Z" fill="#464646" fill-opacity="1.000000" fill-rule="evenodd"/>
	</g>
	<path id="Vector" d="M13.33 11.33C13.33 14 12.66 14.66 10 14.66L6 14.66C3.33 14.66 2.66 14 2.66 11.33L2.66 4.66C2.66 2 3.33 1.33 6 1.33L10 1.33C12.66 1.33 13.33 2 13.33 4.66L13.33 11.33Z" stroke="#464646" stroke-opacity="1.000000" stroke-width="1.000000" stroke-linejoin="round"/>
	<path id="Vector" d="M6.66 3.66L9.33 3.66" stroke="#464646" stroke-opacity="1.000000" stroke-width="1.000000" stroke-linejoin="round" stroke-linecap="round"/>
	<path id="Vector" d="M8 12.73C7.42 12.73 6.96 12.27 6.96 11.7C6.96 11.12 7.42 10.66 8 10.66C8.57 10.66 9.03 11.12 9.03 11.7C9.03 12.27 8.57 12.73 8 12.73Z" stroke="#464646" stroke-opacity="1.000000" stroke-width="0.800000" stroke-linejoin="round"/>
</svg>
