<svg width="18.000000" height="18.000000" viewBox="0 0 18 18" fill="none" xmlns="http://www.w3.org/2000/svg" xmlns:xlink="http://www.w3.org/1999/xlink">
	<desc>
			Created with Pixso.
	</desc>
	<defs/>
	<path id="Vector" d="M9 2.25C8.17 2.25 7.5 2.92 7.5 3.75C7.5 4.57 8.17 5.25 9 5.25C9.82 5.25 10.5 4.57 10.5 3.75C10.5 2.92 9.82 2.25 9 2.25Z" stroke="#B9B9B9" stroke-opacity="1.000000" stroke-width="1.200000"/>
	<path id="Vector" d="M9 12.75C8.17 12.75 7.5 13.42 7.5 14.25C7.5 15.07 8.17 15.75 9 15.75C9.82 15.75 10.5 15.07 10.5 14.25C10.5 13.42 9.82 12.75 9 12.75Z" stroke="#B9B9B9" stroke-opacity="1.000000" stroke-width="1.200000"/>
	<path id="Vector" d="M9 7.5C8.17 7.5 7.5 8.17 7.5 9C7.5 9.82 8.17 10.5 9 10.5C9.82 10.5 10.5 9.82 10.5 9C10.5 8.17 9.82 7.5 9 7.5Z" stroke="#B9B9B9" stroke-opacity="1.000000" stroke-width="1.200000"/>
	<g opacity="0.000000"/>
</svg>
