<svg width="18.000000" height="18.000000" viewBox="0 0 18 18" fill="none" xmlns="http://www.w3.org/2000/svg" xmlns:xlink="http://www.w3.org/1999/xlink">
	<desc>
			Created with Pixso.
	</desc>
	<defs/>
	<rect id="ico / 37" width="18.000000" height="18.000000" fill="#FFFFFF" fill-opacity="0"/>
	<path id="Vector" d="M4.51 6.68L4.51 8.84C4.51 9.3 4.31 10 4.08 10.39L3.22 11.82C2.69 12.71 3.05 13.69 4.03 14.02C7.26 15.1 10.75 15.1 13.98 14.02C14.89 13.72 15.29 12.65 14.79 11.82L13.93 10.39C13.71 10 13.51 9.3 13.51 8.84L13.51 6.68C13.51 4.2 11.49 2.18 9.01 2.18C6.53 2.18 4.51 4.19 4.51 6.68Z" stroke="#2F2F2F" stroke-opacity="1.000000" stroke-width="1.000000"/>
	<path id="Vector" d="M9.68 2.25C8.96 2.15 8.27 2.21 7.62 2.39C7.84 1.84 8.38 1.45 9.01 1.45C9.64 1.45 10.18 1.84 10.4 2.39C10.16 2.33 9.92 2.27 9.68 2.25Z" stroke="#2F2F2F" stroke-opacity="1.000000" stroke-width="1.000000" stroke-linejoin="round"/>
	<path id="Vector" d="M11.26 14.29C11.26 15.53 10.25 16.54 9.01 16.54C8.4 16.54 7.82 16.28 7.42 15.88C7.02 15.48 6.76 14.9 6.76 14.29" stroke="#2F2F2F" stroke-opacity="1.000000" stroke-width="1.000000"/>
	<g opacity="0.000000"/>
</svg>
