<svg width="16.000000" height="16.000000" viewBox="0 0 16 16" fill="none" xmlns="http://www.w3.org/2000/svg" xmlns:xlink="http://www.w3.org/1999/xlink">
	<desc>
			Created with Pixso.
	</desc>
	<defs/>
	<path id="Vector" d="M4.01 5.93L4.01 7.86C4.01 8.27 3.83 8.89 3.63 9.23L2.86 10.51C2.39 11.29 2.72 12.17 3.58 12.46C6.45 13.42 9.56 13.42 12.43 12.46C13.24 12.2 13.59 11.24 13.15 10.51L12.38 9.23C12.18 8.89 12.01 8.27 12.01 7.86L12.01 5.93C12.01 3.73 10.21 1.93 8.01 1.93C5.8 1.93 4.01 3.73 4.01 5.93Z" stroke="#B9B9B9" stroke-opacity="1.000000" stroke-width="1.000000"/>
	<path id="Vector" d="M8.6 2C7.96 1.92 7.35 1.96 6.77 2.13C6.97 1.64 7.45 1.29 8.01 1.29C8.57 1.29 9.05 1.64 9.24 2.13C9.03 2.07 8.82 2.02 8.6 2Z" stroke="#B9B9B9" stroke-opacity="1.000000" stroke-width="1.000000" stroke-linejoin="round"/>
	<path id="Vector" d="M10.01 12.7C10.01 13.8 9.11 14.7 8.01 14.7C7.46 14.7 6.95 14.48 6.59 14.12C6.23 13.76 6.01 13.25 6.01 12.7" stroke="#B9B9B9" stroke-opacity="1.000000" stroke-width="1.000000"/>
	<g opacity="0.000000"/>
</svg>
