<svg width="16.000000" height="16.000000" viewBox="0 0 16 16" fill="none" xmlns="http://www.w3.org/2000/svg" xmlns:xlink="http://www.w3.org/1999/xlink">
	<desc>
			Created with Pixso.
	</desc>
	<defs/>
	<path id="Vector" d="M8.22 8.09L6.57 9.74C5.66 10.66 5.66 12.13 6.57 13.04C7.48 13.96 8.95 13.96 9.87 13.04L12.46 10.45C14.28 8.63 14.28 5.67 12.46 3.85C10.64 2.03 7.68 2.03 5.86 3.85L3.04 6.67C1.47 8.23 1.47 10.77 3.04 12.34" stroke="#B9B9B9" stroke-opacity="1.000000" stroke-width="0.800000" stroke-linejoin="round" stroke-linecap="round"/>
	<g opacity="0.000000">
		<path id="Vector" d="M0 16L16 16L16 0L0 0L0 16ZM15.5 0.5L15.5 15.5L0.5 15.5L0.5 0.5L15.5 0.5Z" fill="#B9B9B9" fill-opacity="1.000000" fill-rule="evenodd"/>
	</g>
</svg>
