<svg width="18.000000" height="18.000000" viewBox="0 0 18 18" fill="none" xmlns="http://www.w3.org/2000/svg" xmlns:xlink="http://www.w3.org/1999/xlink">
	<desc>
			Created with Pixso.
	</desc>
	<defs/>
	<path id="Vector" d="M6.93 6.78C8.27 7.27 9.72 7.27 11.06 6.78" stroke="#FFFFFF" stroke-opacity="1.000000" stroke-width="1.000000" stroke-linejoin="round" stroke-linecap="round"/>
	<path id="Vector" d="M5.38 1.5C3.78 1.5 2.49 2.8 2.49 4.39L2.49 14.96C2.49 16.31 3.45 16.88 4.64 16.23L8.3 14.19C8.69 13.98 9.32 13.98 9.7 14.19L13.36 16.23C14.55 16.89 15.51 16.31 15.51 14.96L15.51 4.39C15.51 2.8 14.21 1.5 12.61 1.5L5.38 1.5Z" stroke="#FFFFFF" stroke-opacity="1.000000" stroke-width="1.000000" stroke-linejoin="round"/>
	<path id="Vector" d="M5.38 1.5C3.78 1.5 2.49 2.8 2.49 4.39L2.49 14.96C2.49 16.31 3.45 16.88 4.64 16.23L8.3 14.19C8.69 13.98 9.32 13.98 9.7 14.19L13.36 16.23C14.55 16.89 15.51 16.31 15.51 14.96L15.51 4.39C15.51 2.8 14.21 1.5 12.61 1.5L5.38 1.5Z" stroke="#FFFFFF" stroke-opacity="1.000000" stroke-width="1.000000" stroke-linejoin="round"/>
	<g opacity="0.000000"/>
</svg>
