<svg width="12.000000" height="12.000000" viewBox="0 0 12 12" fill="none" xmlns="http://www.w3.org/2000/svg" xmlns:xlink="http://www.w3.org/1999/xlink">
	<desc>
			Created with Pixso.
	</desc>
	<defs>
		<clipPath id="clip237_10926">
			<rect width="12.000000" height="12.000000" fill="white" fill-opacity="0"/>
		</clipPath>
	</defs>
	<g clip-path="url(#clip237_10926)">
		<path d="M10.19 4.8C10.84 5.44 10.38 6.54 9.47 6.54C9.2 6.54 8.94 6.65 8.75 6.84L7.91 7.68C7.72 7.87 7.61 8.13 7.61 8.4C7.61 9.31 6.51 9.77 5.87 9.12L2.87 6.12C2.22 5.48 2.68 4.38 3.59 4.38C3.86 4.38 4.12 4.27 4.31 4.08L5.15 3.24C5.34 3.05 5.45 2.79 5.45 2.52C5.45 1.61 6.55 1.15 7.19 1.8L10.19 4.8ZM4.24 7.75L1.5 10.5" stroke="#181818" stroke-opacity="1.000000" stroke-width="0.800000" stroke-linecap="round"/>
	</g>
</svg>
