<svg width="137.620605" height="17.472656" viewBox="0 0 137.621 17.4727" fill="none" xmlns="http://www.w3.org/2000/svg" xmlns:xlink="http://www.w3.org/1999/xlink">
	<desc>
			Created with Pixso.
	</desc>
	<defs/>
	<path id="Ревамп.Эко" d="M95.35 16.49Q97.26 17.47 99.67 17.47Q101.88 17.47 103.68 16.61Q105 15.99 106.1 14.92Q107.41 13.65 108.06 12.1Q108.72 10.56 108.72 8.73Q108.72 6.81 108 5.2Q107.36 3.74 106.13 2.54Q105.11 1.53 103.89 0.93Q102.04 0 99.71 0Q97.95 0 96.39 0.57Q95.82 0.79 95.28 1.08L95.28 4.46Q95.93 4.04 96.64 3.76Q98.09 3.19 99.77 3.19Q100.82 3.19 101.74 3.55Q102.4 3.82 102.98 4.27Q103.59 4.73 104.02 5.32Q104.56 6.07 104.81 7.03L98.42 7.03L98.42 9.93L104.97 9.93Q104.78 10.95 104.27 11.77Q103.82 12.5 103.13 13.08Q102.44 13.63 101.65 13.93Q100.74 14.28 99.69 14.28Q96.82 14.28 95.03 12.89Q94.99 12.86 94.96 12.84L94.96 16.27Q95.16 16.39 95.35 16.49ZM124.87 8.5Q124.32 9.69 124.32 11.13Q124.32 12.6 124.88 13.81Q125.34 14.82 126.19 15.65Q126.75 16.19 127.41 16.57Q128.93 17.44 130.97 17.44Q133 17.44 134.52 16.57Q135.18 16.19 135.74 15.65Q136.59 14.82 137.06 13.81Q137.62 12.6 137.62 11.13Q137.62 9.77 137.11 8.62Q136.64 7.55 135.74 6.67Q135.2 6.13 134.56 5.76Q133.03 4.85 130.97 4.85Q128.89 4.85 127.37 5.76Q126.73 6.13 126.19 6.67Q125.33 7.49 124.87 8.5ZM111.65 17.13L115.03 17.13L115.03 11.97L119.76 17.13L124.13 17.13L118.1 10.56L123.31 5.16L119.16 5.16L115.03 9.53L115.03 5.16L111.65 5.16L111.65 17.13ZM128.03 12.76Q127.65 12.04 127.65 11.13Q127.65 10.21 128.04 9.49Q128.26 9.09 128.59 8.75Q128.94 8.4 129.36 8.18Q130.06 7.8 130.97 7.8Q131.86 7.8 132.57 8.17Q132.99 8.39 133.34 8.75Q133.67 9.09 133.89 9.48Q134.28 10.2 134.28 11.13Q134.28 11.96 133.96 12.64Q133.73 13.12 133.34 13.54Q132.99 13.9 132.57 14.12Q131.86 14.49 130.97 14.49Q130.07 14.49 129.37 14.12Q128.94 13.9 128.59 13.54Q128.24 13.18 128.03 12.76ZM89.81 17.2Q90.22 17.4 90.72 17.4Q91.15 17.4 91.52 17.25Q91.88 17.09 92.19 16.79Q92.48 16.5 92.63 16.15Q92.81 15.76 92.81 15.29Q92.81 14.84 92.64 14.46Q92.49 14.11 92.19 13.82Q91.89 13.53 91.53 13.38Q91.16 13.22 90.72 13.22Q90.21 13.22 89.79 13.42Q89.48 13.57 89.23 13.82Q88.95 14.1 88.8 14.42Q88.63 14.82 88.63 15.29Q88.63 15.78 88.81 16.19Q88.96 16.51 89.23 16.79Q89.49 17.05 89.81 17.2Z" fill="#0066FF" fill-opacity="1.000000" fill-rule="evenodd"/>
	<path id="Ревамп.Эко" d="M0 17.13L3.45 17.13L3.45 10.48L7.34 10.48Q9.9 10.48 11.43 9.23Q11.52 9.15 11.61 9.07Q12.23 8.53 12.6 7.86Q13.2 6.8 13.2 5.4Q13.2 4.05 12.63 3Q12.25 2.31 11.61 1.75Q11.52 1.66 11.43 1.59Q9.9 0.33 7.34 0.33L0 0.33L0 17.13ZM3.45 7.54L3.45 3.36L7.1 3.36Q8.35 3.36 9.04 3.9Q9.27 4.08 9.43 4.31Q9.74 4.77 9.74 5.44Q9.74 6.12 9.43 6.58Q9.27 6.81 9.04 7Q8.35 7.54 7.1 7.54L3.45 7.54ZM17.68 16.69Q19.15 17.44 21 17.44Q23.95 17.44 25.56 16.22L25.56 13.51Q24.19 14.3 22.73 14.5Q22.23 14.57 21.72 14.57Q20.11 14.57 19.04 13.92Q18.48 13.58 18.14 13.09Q17.84 12.64 17.71 12.07L26.3 12.07L26.3 11.18Q26.3 9.38 25.57 7.95Q25.24 7.28 24.74 6.7Q24.11 5.95 23.32 5.51Q22.14 4.85 20.59 4.85Q18.74 4.85 17.36 5.65Q16.66 6.05 16.08 6.67Q15.42 7.36 15.01 8.17Q14.35 9.49 14.35 11.13Q14.35 12.98 15.15 14.36Q15.59 15.11 16.27 15.72Q16.92 16.31 17.68 16.69ZM55.03 14.37Q54.77 14.52 54.33 14.52Q53.95 14.52 53.74 14.33Q53.49 14.1 53.49 13.61L53.49 9.55Q53.49 8.18 52.89 7.18Q52.51 6.57 51.91 6.09Q50.37 4.85 47.78 4.85Q45.17 4.85 43.34 5.81L43.34 8.64Q44.23 8.11 45.19 7.85Q46.05 7.63 46.97 7.63Q49.06 7.63 49.77 8.62Q50.13 9.13 50.13 9.89L50.13 10.24Q48.72 9.5 46.68 9.5Q45.11 9.5 43.9 10.16Q43.61 10.32 43.34 10.51Q42.83 10.88 42.51 11.38Q41.95 12.23 41.95 13.44Q41.95 14.58 42.44 15.44Q42.72 15.94 43.17 16.34Q43.38 16.53 43.61 16.69Q44.73 17.44 46.36 17.44Q48.11 17.44 49.41 16.68Q50 16.33 50.49 15.82Q50.72 16.34 51.11 16.68Q51.86 17.35 53.21 17.35Q54.38 17.35 55.03 16.85L55.03 14.37ZM28.9 17.13L35.95 17.13Q38.01 17.13 39.16 16.26Q39.66 15.88 39.94 15.39Q40.32 14.72 40.32 13.85Q40.32 12.8 39.84 12.07Q39.27 11.21 38.04 10.78Q38.64 10.47 39 9.98Q39.5 9.28 39.5 8.23Q39.5 7.48 39.2 6.88Q38.95 6.4 38.49 6.01Q37.49 5.16 35.66 5.16L28.9 5.16L28.9 17.13ZM57.38 17.13L60.57 17.13L60.57 9.74L63.52 13.46L64.87 13.46L67.84 9.74L67.84 17.13L71.04 17.13L71.04 5.16L67.7 5.16L64.2 9.62L60.72 5.16L57.38 5.16L57.38 17.13ZM74.35 17.13L77.73 17.13L77.73 7.99L82.51 7.99L82.51 17.13L85.89 17.13L85.89 5.16L74.35 5.16L74.35 17.13ZM32.23 9.93L32.23 7.48L34.58 7.48Q35.6 7.48 35.97 7.98Q36.19 8.26 36.19 8.71Q36.19 9.16 35.97 9.44Q35.6 9.93 34.58 9.93L32.23 9.93ZM22.97 9.91L17.71 9.91Q17.79 9.19 18.15 8.66Q18.32 8.39 18.57 8.17Q18.76 8.01 18.98 7.88Q19.61 7.51 20.45 7.51Q21.23 7.51 21.81 7.86Q22.04 8 22.23 8.2Q22.49 8.45 22.66 8.76Q22.94 9.26 22.97 9.91ZM50.13 12.41L50.13 13.61Q49.83 14 49.44 14.27Q48.63 14.83 47.42 14.83Q46.44 14.83 45.86 14.44Q45.63 14.28 45.5 14.07Q45.29 13.74 45.29 13.27Q45.29 12.91 45.43 12.63Q45.59 12.33 45.92 12.12Q46.56 11.71 47.63 11.71Q48.9 11.71 49.87 12.24Q50 12.32 50.13 12.41ZM32.23 14.75L32.23 12.07L35.11 12.07Q36.21 12.07 36.62 12.6Q36.86 12.92 36.86 13.41Q36.86 13.91 36.62 14.22Q36.21 14.75 35.11 14.75L32.23 14.75Z" fill="#0A0A0A" fill-opacity="1.000000" fill-rule="evenodd"/>
</svg>
