<svg width="18.000000" height="18.000000" viewBox="0 0 18 18" fill="none" xmlns="http://www.w3.org/2000/svg" xmlns:xlink="http://www.w3.org/1999/xlink">
	<desc>
			Created with Pixso.
	</desc>
	<defs/>
	<path id="Vector" d="M4.12 3.07C3.26 3.39 2.55 4.41 2.55 5.33L2.55 10.91C2.55 11.79 3.14 12.95 3.85 13.49L7.08 15.89C8.13 16.69 9.87 16.69 10.93 15.89L14.16 13.49C14.87 12.95 15.45 11.79 15.45 10.91L15.45 5.33C15.45 4.41 14.75 3.39 13.89 3.07L10.14 1.67C9.51 1.43 8.49 1.43 7.86 1.67L4.12 3.07Z" stroke="#2F2F2F" stroke-opacity="1.000000" stroke-width="1.000000" stroke-linejoin="round"/>
	<path id="Vector" d="M8.9 8.19C8.19 8.16 7.63 7.58 7.63 6.87C7.63 6.14 8.22 5.55 8.95 5.55C9.68 5.55 10.27 6.14 10.27 6.87C10.26 7.59 9.7 8.16 9 8.19C8.96 8.19 8.93 8.19 8.9 8.19Z" stroke="#2F2F2F" stroke-opacity="1.000000" stroke-width="1.000000" stroke-linejoin="round"/>
	<path id="Vector" d="M7.5 12.03C8.32 12.58 9.66 12.58 10.48 12.03C11.2 11.55 11.2 10.77 10.48 10.29C9.67 9.74 8.33 9.74 7.5 10.29C6.78 10.77 6.78 11.55 7.5 12.03Z" stroke="#2F2F2F" stroke-opacity="1.000000" stroke-width="1.000000" stroke-linejoin="round"/>
	<g opacity="0.000000"/>
</svg>
