<svg width="18.000000" height="18.000000" viewBox="0 0 18 18" fill="none" xmlns="http://www.w3.org/2000/svg" xmlns:xlink="http://www.w3.org/1999/xlink">
	<desc>
			Created with Pixso.
	</desc>
	<defs/>
	<path id="Vector" d="M9 11.25C7.75 11.25 6.75 10.24 6.75 9C6.75 7.75 7.75 6.75 9 6.75C10.24 6.75 11.25 7.75 11.25 9C11.25 10.24 10.24 11.25 9 11.25Z" stroke="#B9B9B9" stroke-opacity="1.000000" stroke-width="1.000000" stroke-linejoin="round"/>
	<path id="Vector" d="M1.5 8.33C1.5 7.55 2.13 6.91 2.92 6.91C4.28 6.91 4.83 5.95 4.15 4.77C3.76 4.1 3.99 3.22 4.67 2.83L5.97 2.09C6.57 1.73 7.33 1.94 7.68 2.54L7.77 2.68C8.44 3.86 9.55 3.86 10.23 2.68L10.32 2.54C10.67 1.94 11.43 1.73 12.03 2.09L13.32 2.83C14.01 3.22 14.24 4.1 13.85 4.77C13.16 5.95 13.72 6.91 15.08 6.91C15.86 6.91 16.5 7.55 16.5 8.33L16.5 9.65C16.5 10.43 15.87 11.08 15.08 11.08C13.72 11.08 13.16 12.04 13.85 13.22C14.24 13.9 14.01 14.77 13.32 15.16L12.03 15.9C11.43 16.26 10.67 16.04 10.32 15.45L10.23 15.31C9.56 14.13 8.45 14.13 7.77 15.31L7.68 15.45C7.33 16.04 6.57 16.26 5.97 15.9L4.67 15.16C3.99 14.77 3.76 13.89 4.15 13.22C4.83 12.04 4.28 11.08 2.92 11.08C2.13 11.08 1.5 10.43 1.5 9.65L1.5 8.33Z" stroke="#B9B9B9" stroke-opacity="1.000000" stroke-width="1.000000" stroke-linejoin="round"/>
	<g opacity="0.000000">
		<path id="Vector" d="M18 0L0 0L0 18L18 18L18 0ZM1 17L1 1L17 1L17 17L1 17Z" fill="#B9B9B9" fill-opacity="1.000000" fill-rule="evenodd"/>
	</g>
</svg>
