<svg width="18.000000" height="18.000000" viewBox="0 0 18 18" fill="none" xmlns="http://www.w3.org/2000/svg" xmlns:xlink="http://www.w3.org/1999/xlink">
	<desc>
			Created with Pixso.
	</desc>
	<defs/>
	<path id="Vector" d="M6.75 16.5C3 16.5 1.5 15 1.5 11.25L1.5 6.75C1.5 3 3 1.5 6.75 1.5L11.25 1.5C15 1.5 16.5 3 16.5 6.75L16.5 11.25C16.5 15 15 16.5 11.25 16.5L6.75 16.5Z" stroke="#66A3FF" stroke-opacity="1.000000" stroke-width="1.200000" stroke-linejoin="round"/>
	<path id="Vector" d="M11.25 1.5L11.25 16.5" stroke="#66A3FF" stroke-opacity="1.000000" stroke-width="1.200000" stroke-linejoin="round" stroke-linecap="round"/>
	<g opacity="0.000000">
		<path id="Vector" d="M18 0L0 0L0 18L18 18L18 0ZM1.19 16.79L1.19 1.19L16.79 1.19L16.79 16.79L1.19 16.79Z" fill="#66A3FF" fill-opacity="1.000000" fill-rule="evenodd"/>
	</g>
</svg>
