<svg width="18.000000" height="18.000000" viewBox="0 0 18 18" fill="none" xmlns="http://www.w3.org/2000/svg" xmlns:xlink="http://www.w3.org/1999/xlink">
	<desc>
			Created with Pixso.
	</desc>
	<defs/>
	<path id="Vector" d="M16.5 8.62L16.5 11.62C16.5 14.25 15 15.37 12.75 15.37L5.25 15.37C3 15.37 1.5 14.25 1.5 11.62L1.5 6.37C1.5 3.75 3 2.62 5.25 2.62L9 2.62" stroke="#B9B9B9" stroke-opacity="1.000000" stroke-width="1.200000" stroke-linejoin="round" stroke-linecap="round"/>
	<path id="Vector" d="M5.25 6.75L7.59 8.62C8.37 9.24 9.63 9.24 10.41 8.62" stroke="#B9B9B9" stroke-opacity="1.000000" stroke-width="1.200000" stroke-linejoin="round" stroke-linecap="round"/>
	<path id="Vector" d="M14.82 2.54C14.92 2.75 15.18 2.94 15.41 2.99L15.7 3.03C16.55 3.18 16.76 3.81 16.14 4.43L15.88 4.69C15.71 4.87 15.61 5.22 15.66 5.45L15.7 5.61C15.93 6.65 15.38 7.05 14.49 6.51L14.29 6.39C14.06 6.26 13.68 6.26 13.45 6.39L13.25 6.51C12.35 7.05 11.8 6.65 12.04 5.61L12.08 5.45C12.13 5.22 12.03 4.87 11.86 4.69L11.6 4.43C10.98 3.81 11.18 3.18 12.04 3.03L12.33 2.99C12.55 2.95 12.82 2.75 12.92 2.54L13.13 2.11C13.54 1.29 14.2 1.29 14.61 2.11L14.82 2.54Z" stroke="#B9B9B9" stroke-opacity="1.000000" stroke-width="1.200000" stroke-linejoin="round"/>
	<g opacity="0.000000"/>
</svg>
