<svg width="16.000000" height="16.000000" viewBox="0 0 16 16" fill="none" xmlns="http://www.w3.org/2000/svg" xmlns:xlink="http://www.w3.org/1999/xlink">
	<desc>
			Created with Pixso.
	</desc>
	<defs/>
	<path id="Vector" d="M14.66 7L14.66 10.33C14.66 12.66 13.33 13.66 11.33 13.66L4.66 13.66C2.66 13.66 1.33 12.66 1.33 10.33L1.33 5.66C1.33 3.33 2.66 2.33 4.66 2.33L9.33 2.33" stroke="#464646" stroke-opacity="1.000000" stroke-width="1.000000" stroke-linejoin="round" stroke-linecap="round"/>
	<path id="Vector" d="M4.66 6L6.75 7.66C7.43 8.21 8.56 8.21 9.25 7.66L10.04 7.04" stroke="#464646" stroke-opacity="1.000000" stroke-width="1.000000" stroke-linejoin="round" stroke-linecap="round"/>
	<path id="Vector" d="M13 5.33C12.07 5.33 11.33 4.58 11.33 3.66C11.33 2.74 12.07 2 13 2C13.92 2 14.66 2.74 14.66 3.66C14.66 4.58 13.92 5.33 13 5.33Z" stroke="#0066FF" stroke-opacity="1.000000" stroke-width="1.000000" stroke-linejoin="round"/>
	<g opacity="0.000000"/>
</svg>
