<svg width="16.000000" height="16.000000" viewBox="0 0 16 16" fill="none" xmlns="http://www.w3.org/2000/svg" xmlns:xlink="http://www.w3.org/1999/xlink">
	<desc>
			Created with Pixso.
	</desc>
	<defs/>
	<path id="Vector" d="M4.66 13.66C2.66 13.66 1.33 12.66 1.33 10.33L1.33 5.66C1.33 3.33 2.66 2.33 4.66 2.33L11.33 2.33C13.33 2.33 14.66 3.33 14.66 5.66L14.66 10.33C14.66 12.66 13.33 13.66 11.33 13.66L4.66 13.66Z" stroke="#464646" stroke-opacity="1.000000" stroke-width="1.000000" stroke-linejoin="round"/>
	<path id="Vector" d="M11.33 6L9.24 7.66C8.56 8.21 7.43 8.21 6.74 7.66L4.66 6" stroke="#464646" stroke-opacity="1.000000" stroke-width="1.000000" stroke-linejoin="round" stroke-linecap="round"/>
	<g opacity="0.000000">
		<path id="Vector" d="M16 0L0 0L0 16L16 16L16 0ZM0.79 15.2L0.79 0.8L15.2 0.8L15.2 15.2L0.79 15.2Z" fill="#464646" fill-opacity="1.000000" fill-rule="evenodd"/>
	</g>
</svg>
