<svg width="18.000000" height="18.000000" viewBox="0 0 18 18" fill="none" xmlns="http://www.w3.org/2000/svg" xmlns:xlink="http://www.w3.org/1999/xlink">
	<desc>
			Created with Pixso.
	</desc>
	<defs/>
	<path id="Vector" d="M11.61 5.27C11.79 5.64 12.27 5.99 12.68 6.06L15.07 6.45C16.6 6.71 16.96 7.82 15.86 8.91L14 10.77C13.68 11.09 13.51 11.7 13.61 12.13L14.14 14.43C14.56 16.25 13.59 16.96 11.98 16.01L9.74 14.68C9.33 14.44 8.66 14.44 8.25 14.68L6.01 16.01C4.41 16.96 3.43 16.25 3.85 14.43L4.38 12.13C4.48 11.7 4.31 11.09 3.99 10.77L2.13 8.91C1.04 7.82 1.39 6.71 2.92 6.45L5.31 6.06C5.71 5.99 6.19 5.64 6.37 5.27L7.69 2.63C8.41 1.2 9.58 1.2 10.29 2.63L11.61 5.27Z" stroke="#B9B9B9" stroke-opacity="1.000000" stroke-width="1.200000" stroke-linejoin="round"/>
	<g opacity="0.000000"/>
</svg>
