<svg width="16.000000" height="16.000000" viewBox="0 0 16 16" fill="none" xmlns="http://www.w3.org/2000/svg" xmlns:xlink="http://www.w3.org/1999/xlink">
	<desc>
			Created with Pixso.
	</desc>
	<defs/>
	<path id="Vector" d="M14.55 8.94C13.85 8.35 12.96 8 11.97 8C9.77 8 7.97 9.79 7.97 12C7.97 12.98 8.33 13.88 8.91 14.57C8.79 14.6 8.67 14.62 8.55 14.64C7.98 14.69 7.4 14.66 6.8 14.56C4.06 14.1 1.85 11.88 1.4 9.13C0.65 4.56 4.54 0.67 9.11 1.42C11.85 1.88 14.08 4.08 14.54 6.82C14.64 7.42 14.67 8 14.62 8.57C14.6 8.7 14.58 8.82 14.55 8.94Z" stroke="#B9B9B9" stroke-opacity="1.000000" stroke-width="0.800000" stroke-linejoin="round"/>
	<path id="Vector" d="M14.04 9.8L9.78 14.06C9.54 14.3 9.24 14.48 8.92 14.57C8.33 13.88 7.98 12.98 7.98 12C7.98 9.79 9.77 8 11.98 8C12.96 8 13.86 8.35 14.55 8.93C14.46 9.26 14.28 9.56 14.04 9.8Z" stroke="#B9B9B9" stroke-opacity="1.000000" stroke-width="0.800000" stroke-linejoin="round"/>
	<g opacity="0.000000">
		<path id="Vector" d="M16 0L0 0L0 16L16 16L16 0ZM0.79 15.2L0.79 0.79L15.2 0.79L15.2 15.2L0.79 15.2Z" fill="#B9B9B9" fill-opacity="1.000000" fill-rule="evenodd"/>
	</g>
</svg>
