<svg width="16.000000" height="16.000000" viewBox="0 0 16 16" fill="none" xmlns="http://www.w3.org/2000/svg" xmlns:xlink="http://www.w3.org/1999/xlink">
	<desc>
			Created with Pixso.
	</desc>
	<defs/>
	<path id="Vector" d="M8 12.33C5.6 12.33 3.66 10.39 3.66 8C3.66 5.6 5.6 3.66 8 3.66C10.39 3.66 12.33 5.6 12.33 8C12.33 10.39 10.39 12.33 8 12.33Z" stroke="#464646" stroke-opacity="1.000000" stroke-width="1.000000" stroke-linejoin="round"/>
	<path id="Vector" d="M12.76 3.23L12.67 3.32L12.76 3.23ZM3.32 12.67L3.23 12.76L3.32 12.67ZM8 1.33L8 1.38L8 1.33ZM8 14.61L8 14.66L8 14.61ZM1.33 8L1.38 8L1.33 8ZM14.61 8L14.66 8L14.61 8ZM3.23 3.23L3.32 3.32L3.23 3.23ZM12.76 12.76L12.67 12.67" stroke="#464646" stroke-opacity="1.000000" stroke-width="1.500000" stroke-linejoin="round" stroke-linecap="round"/>
	<g opacity="0.000000">
		<path id="Vector" d="M0 16L16 16L16 0L0 0L0 16ZM15 1L15 15L1 15L1 1L15 1Z" fill="#464646" fill-opacity="1.000000" fill-rule="evenodd"/>
	</g>
</svg>
