<svg width="12.000000" height="12.000000" viewBox="0 0 12 12" fill="none" xmlns="http://www.w3.org/2000/svg" xmlns:xlink="http://www.w3.org/1999/xlink">
	<desc>
			Created with Pixso.
	</desc>
	<defs/>
	<path id="Vector" d="M10.5 2.98C8.83 2.82 7.16 2.73 5.48 2.73C4.5 2.73 3.51 2.79 2.52 2.89L1.5 2.98" stroke="#181818" stroke-opacity="1.000000" stroke-width="0.800000" stroke-linejoin="round" stroke-linecap="round"/>
	<path id="Vector" d="M4.25 2.48L4.35 1.82C4.43 1.35 4.5 1 5.34 1L6.65 1C7.5 1 7.56 1.37 7.64 1.83L7.75 2.48" stroke="#181818" stroke-opacity="1.000000" stroke-width="0.800000" stroke-linejoin="round" stroke-linecap="round"/>
	<path id="Vector" d="M9.42 4.57L9.09 9.6C9.04 10.39 9 11 7.6 11L4.39 11C3 11 2.95 10.39 2.89 9.6L2.57 4.57" stroke="#181818" stroke-opacity="1.000000" stroke-width="0.800000" stroke-linejoin="round" stroke-linecap="round"/>
	<path id="Vector" d="M5.16 8.25L6.83 8.25" stroke="#181818" stroke-opacity="1.000000" stroke-width="0.800000" stroke-linejoin="round" stroke-linecap="round"/>
	<path id="Vector" d="M4.75 6.25L7.25 6.25" stroke="#181818" stroke-opacity="1.000000" stroke-width="0.800000" stroke-linejoin="round" stroke-linecap="round"/>
	<g opacity="0.000000"/>
</svg>
