<svg width="16.000000" height="16.000000" viewBox="0 0 16 16" fill="none" xmlns="http://www.w3.org/2000/svg" xmlns:xlink="http://www.w3.org/1999/xlink">
	<desc>
			Created with Pixso.
	</desc>
	<defs/>
	<path id="Vector" d="M10 14.66L6 14.66C5.18 14.66 4.49 14.58 3.9 14.41C4.05 12.67 5.83 11.31 8 11.31C10.16 11.31 11.94 12.67 12.09 14.41C11.5 14.58 10.81 14.66 10 14.66Z" stroke="#464646" stroke-opacity="1.000000" stroke-width="1.000000" stroke-linejoin="round"/>
	<path id="Vector" d="M6 1.33C2.66 1.33 1.33 2.66 1.33 6L1.33 10C1.33 12.52 2.09 13.89 3.9 14.41C4.05 12.67 5.83 11.31 8 11.31C10.16 11.31 11.94 12.67 12.09 14.41C13.9 13.89 14.66 12.52 14.66 10L14.66 6C14.66 2.66 13.33 1.33 10 1.33L6 1.33ZM5.61 7.05C5.61 5.73 6.67 4.66 8 4.66C9.32 4.66 10.38 5.73 10.38 7.05C10.38 8.37 9.32 9.44 8 9.44C6.67 9.44 5.61 8.37 5.61 7.05Z" stroke="#464646" stroke-opacity="1.000000" stroke-width="1.000000" stroke-linejoin="round"/>
	<path id="Vector" d="M8 9.44C6.67 9.44 5.61 8.37 5.61 7.05C5.61 5.73 6.67 4.66 8 4.66C9.32 4.66 10.38 5.73 10.38 7.05C10.38 8.37 9.32 9.44 8 9.44Z" stroke="#464646" stroke-opacity="1.000000" stroke-width="0.800000" stroke-linejoin="round"/>
	<g opacity="0.000000"/>
</svg>
