<svg width="10.040039" height="9.578491" viewBox="0 0 10.04 9.57849" fill="none" xmlns="http://www.w3.org/2000/svg" xmlns:xlink="http://www.w3.org/1999/xlink">
	<desc>
			Created with Pixso.
	</desc>
	<defs/>
	<path id="Stroke 1" d="M7.24 7.77C7.24 8.89 5.67 9.17 3.82 9.17C1.97 9.17 0.4 8.9 0.4 7.78C0.4 6.66 1.96 6.37 3.82 6.37C5.66 6.37 7.24 6.65 7.24 7.77Z" stroke="#A3A3A3" stroke-opacity="1.000000" stroke-width="0.800000" stroke-linejoin="round"/>
	<path id="Stroke 3" d="M1.62 2.59C1.62 1.38 2.61 0.4 3.82 0.4C5.03 0.4 6.01 1.38 6.01 2.59C6.01 3.79 5.04 4.78 3.83 4.78L3.82 4.78C2.61 4.78 1.62 3.8 1.62 2.59Z" stroke="#A3A3A3" stroke-opacity="1.000000" stroke-width="0.800000" stroke-linejoin="round"/>
	<path id="Stroke 5" d="M7.26 4.21C8.06 4.1 8.68 3.41 8.68 2.58C8.68 1.76 8.08 1.08 7.3 0.95" stroke="#A3A3A3" stroke-opacity="1.000000" stroke-width="0.800000" stroke-linejoin="round" stroke-linecap="round"/>
	<path id="Stroke 7" d="M8.32 6.14C9.09 6.25 9.64 6.52 9.64 7.08C9.64 7.47 9.38 7.72 8.97 7.88" stroke="#A3A3A3" stroke-opacity="1.000000" stroke-width="0.800000" stroke-linejoin="round" stroke-linecap="round"/>
</svg>
