<svg width="18.000000" height="18.000000" viewBox="0 0 18 18" fill="none" xmlns="http://www.w3.org/2000/svg" xmlns:xlink="http://www.w3.org/1999/xlink">
	<desc>
			Created with Pixso.
	</desc>
	<defs/>
	<path id="Vector" d="M11.25 16.5C15 16.5 16.5 15 16.5 11.25L16.5 6.75C16.5 3 15 1.5 11.25 1.5L6.75 1.5C3 1.5 1.5 3 1.5 6.75L1.5 11.25C1.5 15 3 16.5 6.75 16.5L11.25 16.5Z" stroke="#2F2F2F" stroke-opacity="1.000000" stroke-width="1.000000" stroke-linejoin="round"/>
	<path id="Vector" d="M6.82 7.89C6.82 6.45 7.83 5.88 9.07 6.59L10.03 7.14L10.99 7.7C12.23 8.41 12.23 9.58 10.99 10.29L10.03 10.85L9.07 11.4C7.83 12.12 6.82 11.53 6.82 10.1L6.82 9L6.82 7.89Z" stroke="#2F2F2F" stroke-opacity="1.000000" stroke-width="1.000000" stroke-linejoin="round"/>
	<g opacity="0.000000"/>
</svg>
