<svg width="12.000000" height="12.000000" viewBox="0 0 12 12" fill="none" xmlns="http://www.w3.org/2000/svg" xmlns:xlink="http://www.w3.org/1999/xlink">
	<desc>
			Created with Pixso.
	</desc>
	<defs/>
	<path id="Vector" d="M7.5 4.18L7.5 3.7C7.5 2.21 6.46 1.64 5.2 2.43L3.74 3.34C3.58 3.44 3.39 3.5 3.21 3.5L2.5 3.5C1.5 3.5 1 4 1 5L1 7C1 8 1.5 8.5 2.5 8.5L3.5 8.5" stroke="#464646" stroke-opacity="1.000000" stroke-width="0.800000" stroke-linejoin="round" stroke-linecap="round"/>
	<path id="Vector" d="M5.2 9.56C6.46 10.35 7.5 9.78 7.5 8.29L7.5 6.47" stroke="#464646" stroke-opacity="1.000000" stroke-width="0.800000" stroke-linejoin="round" stroke-linecap="round"/>
	<path id="Vector" d="M9.4 4.7C9.85 5.78 9.71 7.04 9 8" stroke="#464646" stroke-opacity="1.000000" stroke-width="0.800000" stroke-linejoin="round" stroke-linecap="round"/>
	<path id="Vector" d="M10.57 3.89C11.31 5.64 11.09 7.68 9.91 9.25" stroke="#464646" stroke-opacity="1.000000" stroke-width="0.800000" stroke-linejoin="round" stroke-linecap="round"/>
	<path id="Vector" d="M1 11L11 1" stroke="#464646" stroke-opacity="1.000000" stroke-width="0.800000" stroke-linejoin="round" stroke-linecap="round"/>
	<g opacity="0.000000"/>
</svg>
